<svg xmlns="http://www.w3.org/2000/svg" viewBox="0 0 334.14 59.14"><defs><style>.cls-1{fill:#fff;}</style></defs><g id="Layer_2" data-name="Layer 2"><g id="Layer_1-2" data-name="Layer 1"><path class="cls-1" d="M45.73,28.15a15.38,15.38,0,0,1-.85,3.35,14.94,14.94,0,0,1-1.52,3,14.16,14.16,0,0,1-2.09,2.46,13.14,13.14,0,0,1-2.54,1.88A12.19,12.19,0,0,1,35.81,40a11.92,11.92,0,0,1-3.16.42,8.17,8.17,0,0,1-3.54-.72,6.69,6.69,0,0,1-2.47-2,7.31,7.31,0,0,1-1.32-3A10.45,10.45,0,0,1,25.23,31a15.38,15.38,0,0,1,.85-3.35,14.5,14.5,0,0,1,3.61-5.42,13.32,13.32,0,0,1,2.55-1.88,12.39,12.39,0,0,1,2.91-1.2,12,12,0,0,1,3.18-.42,8.09,8.09,0,0,1,3.53.72,6.61,6.61,0,0,1,2.47,2,7.43,7.43,0,0,1,1.32,3A10.76,10.76,0,0,1,45.73,28.15Zm-3.91.09a8.76,8.76,0,0,0,0-2.61,5,5,0,0,0-.76-2,3.85,3.85,0,0,0-1.48-1.29,4.86,4.86,0,0,0-2.15-.45,6.92,6.92,0,0,0-3,.64A7.83,7.83,0,0,0,32,24.35a10.68,10.68,0,0,0-1.82,2.86,14,14,0,0,0-1,3.71,8.78,8.78,0,0,0,0,2.61,5,5,0,0,0,.75,2,3.7,3.7,0,0,0,1.47,1.27,4.84,4.84,0,0,0,2.16.45,7,7,0,0,0,3-.64A8,8,0,0,0,39,34.79,10.26,10.26,0,0,0,40.8,32,13.83,13.83,0,0,0,41.82,28.24Z"/><path class="cls-1" d="M55.83,37h7.71l-.8,3.15H51.22L56.76,19h3.8Z"/><path class="cls-1" d="M91.51,28.15A14.64,14.64,0,0,1,90,33a13.75,13.75,0,0,1-2.89,3.8,12.94,12.94,0,0,1-3.94,2.48,12.44,12.44,0,0,1-4.67.89H71L76.57,19h7.48a8.47,8.47,0,0,1,3.54.69,6.42,6.42,0,0,1,2.49,1.9,7.1,7.1,0,0,1,1.33,2.9A10.45,10.45,0,0,1,91.51,28.15Zm-3.91.09a8.92,8.92,0,0,0,0-2.58,4.89,4.89,0,0,0-.75-2,3.73,3.73,0,0,0-1.46-1.26A4.91,4.91,0,0,0,83.25,22H79.6l-4,15.13h3.65a7.3,7.3,0,0,0,3-.61,7.75,7.75,0,0,0,2.48-1.77A9.89,9.89,0,0,0,86.58,32,13.63,13.63,0,0,0,87.6,28.24Z"/><path class="cls-1" d="M115.26,19l-.83,3.12h-5.8L103.9,40.17h-3.78l4.72-18.07H99L99.83,19Z"/><path class="cls-1" d="M138.49,28.15a14.83,14.83,0,0,1-.85,3.35,14.42,14.42,0,0,1-1.52,3A14.16,14.16,0,0,1,134,36.91a13.14,13.14,0,0,1-2.54,1.88A12.19,12.19,0,0,1,128.57,40a11.92,11.92,0,0,1-3.16.42,8.09,8.09,0,0,1-3.53-.72,6.65,6.65,0,0,1-2.48-2,7.31,7.31,0,0,1-1.32-3A10.68,10.68,0,0,1,118,31a15.38,15.38,0,0,1,.85-3.35,14.82,14.82,0,0,1,3.61-5.42A13.32,13.32,0,0,1,125,20.36a12.57,12.57,0,0,1,2.91-1.2,12.07,12.07,0,0,1,3.18-.42,8.17,8.17,0,0,1,3.54.72,6.58,6.58,0,0,1,2.46,2,7.29,7.29,0,0,1,1.32,3A10.76,10.76,0,0,1,138.49,28.15Zm-3.91.09a8.14,8.14,0,0,0,0-2.61,5,5,0,0,0-.76-2,3.78,3.78,0,0,0-1.48-1.29,4.86,4.86,0,0,0-2.15-.45,6.92,6.92,0,0,0-3,.64,7.79,7.79,0,0,0-2.47,1.83,10.47,10.47,0,0,0-1.83,2.86,14,14,0,0,0-1,3.71,9.13,9.13,0,0,0,0,2.61,5,5,0,0,0,.75,2,3.7,3.7,0,0,0,1.47,1.27,4.84,4.84,0,0,0,2.16.45,7,7,0,0,0,3-.64,8,8,0,0,0,2.48-1.82A10,10,0,0,0,133.56,32,13.83,13.83,0,0,0,134.58,28.24Z"/><path class="cls-1" d="M147.76,19h3a1.11,1.11,0,0,1,.77.24.8.8,0,0,1,.27.62l.06,13a9,9,0,0,1,0,1c0,.36-.07.74-.11,1.14.37-.8.72-1.52,1.08-2.15l7.07-13a1.74,1.74,0,0,1,.59-.59,1.57,1.57,0,0,1,.88-.27h.88a1.13,1.13,0,0,1,.77.24.9.9,0,0,1,.3.62l.31,13v1c0,.35,0,.71-.06,1.09.16-.38.32-.74.48-1.1s.31-.69.47-1l6.83-13a1.71,1.71,0,0,1,.6-.6,1.62,1.62,0,0,1,.89-.26h3L164.2,40.17h-3.44l-.36-14.69c0-.18,0-.39,0-.6s0-.46,0-.7c-.11.24-.23.48-.34.7s-.22.42-.33.6l-8,14.69h-3.43Z"/><path class="cls-1" d="M186.12,19a.66.66,0,0,1,.29.09.6.6,0,0,1,.21.18,3,3,0,0,1,.17.32L193,34.06c.06-.29.12-.56.18-.83s.12-.52.18-.76L196.93,19h3.36l-5.56,21.19h-1.95a1.73,1.73,0,0,1-.73-.14,1,1,0,0,1-.44-.52L185.41,25c-.06.24-.11.46-.16.68s-.1.43-.14.63l-3.58,13.82h-3.36L183.71,19h2A2.56,2.56,0,0,1,186.12,19Z"/><path class="cls-1" d="M204.18,38.17a2.43,2.43,0,0,1,.29-.86,2.58,2.58,0,0,1,.56-.7,2.66,2.66,0,0,1,.77-.47,2.33,2.33,0,0,1,.9-.18,2,2,0,0,1,.85.18,1.74,1.74,0,0,1,.63.47,1.7,1.7,0,0,1,.38.7,2.06,2.06,0,0,1,.06.86,2.15,2.15,0,0,1-.3.87,2.43,2.43,0,0,1-.57.7,2.5,2.5,0,0,1-.77.46,2.24,2.24,0,0,1-.89.17,1.93,1.93,0,0,1-.85-.17,1.75,1.75,0,0,1-.64-.46,1.68,1.68,0,0,1-.37-.7A2.07,2.07,0,0,1,204.18,38.17Z"/><path class="cls-1" d="M232,22.79a2.23,2.23,0,0,1-.47.43,1,1,0,0,1-.52.14.89.89,0,0,1-.57-.24c-.18-.15-.4-.33-.66-.52a5,5,0,0,0-.93-.52,3.63,3.63,0,0,0-1.37-.23,4.37,4.37,0,0,0-1.45.23,3.44,3.44,0,0,0-1.12.65,3.26,3.26,0,0,0-.77,1,3.88,3.88,0,0,0-.38,1.21,1.68,1.68,0,0,0,.19,1.12,2.6,2.6,0,0,0,.8.78,5.51,5.51,0,0,0,1.19.6l1.38.56a14.28,14.28,0,0,1,1.36.67,4.42,4.42,0,0,1,1.15.94,3.52,3.52,0,0,1,.71,1.34,4.5,4.5,0,0,1,.09,1.9,8.84,8.84,0,0,1-.95,2.93,8.45,8.45,0,0,1-1.87,2.41,8.82,8.82,0,0,1-6,2.25,7.62,7.62,0,0,1-1.79-.2,7.46,7.46,0,0,1-1.61-.56,6.9,6.9,0,0,1-1.34-.88,5.17,5.17,0,0,1-1-1.14l1.6-1.82a1.41,1.41,0,0,1,.45-.34,1.14,1.14,0,0,1,.52-.13.73.73,0,0,1,.44.15,3.21,3.21,0,0,1,.45.36l.52.46a3.26,3.26,0,0,0,.66.47,3.78,3.78,0,0,0,.87.36,4.06,4.06,0,0,0,1.17.15,4,4,0,0,0,2.73-.94,4,4,0,0,0,1.29-2.59,1.83,1.83,0,0,0-.17-1.2,2.29,2.29,0,0,0-.78-.8,6.47,6.47,0,0,0-1.18-.56l-1.38-.51a10.39,10.39,0,0,1-1.35-.63,4,4,0,0,1-1.14-.93,3.46,3.46,0,0,1-.7-1.38,4.94,4.94,0,0,1,0-2,7.67,7.67,0,0,1,.86-2.63,8.28,8.28,0,0,1,4.25-3.75,8,8,0,0,1,3.1-.58,7.79,7.79,0,0,1,1.64.17,6.6,6.6,0,0,1,1.42.5,5.57,5.57,0,0,1,1.16.77,4.76,4.76,0,0,1,.87,1Z"/><path class="cls-1" d="M253.8,40.17H250l2.43-9.31H243.5l-2.43,9.31h-3.83L242.78,19h3.83l-2.42,9.19h8.93L255.53,19h3.83Z"/><path class="cls-1" d="M285.33,28.15a15.38,15.38,0,0,1-.85,3.35,15,15,0,0,1-1.53,3,14.11,14.11,0,0,1-2.08,2.46,12.91,12.91,0,0,1-2.55,1.88,12.4,12.4,0,0,1-6.07,1.61,8.17,8.17,0,0,1-3.54-.72,6.61,6.61,0,0,1-2.47-2,7.33,7.33,0,0,1-1.33-3,10.69,10.69,0,0,1-.08-3.72,14.83,14.83,0,0,1,.85-3.35,14.17,14.17,0,0,1,1.52-2.95,14.61,14.61,0,0,1,2.09-2.47,13.57,13.57,0,0,1,2.54-1.88,12.64,12.64,0,0,1,2.92-1.2,12,12,0,0,1,3.18-.42,8.12,8.12,0,0,1,3.53.72,6.61,6.61,0,0,1,2.47,2,7.42,7.42,0,0,1,1.31,3A10.75,10.75,0,0,1,285.33,28.15Zm-3.91.09a8.76,8.76,0,0,0,0-2.61,5.14,5.14,0,0,0-.76-2,3.81,3.81,0,0,0-1.49-1.29,4.83,4.83,0,0,0-2.15-.45,7,7,0,0,0-3,.64,7.9,7.9,0,0,0-2.47,1.83,10.68,10.68,0,0,0-1.82,2.86,14,14,0,0,0-1,3.71,8.78,8.78,0,0,0,0,2.61,4.74,4.74,0,0,0,.75,2A3.7,3.7,0,0,0,271,36.8a4.84,4.84,0,0,0,2.16.45,7,7,0,0,0,3-.64,8.11,8.11,0,0,0,2.48-1.82A10.26,10.26,0,0,0,280.4,32,13.83,13.83,0,0,0,281.42,28.24Z"/><path class="cls-1" d="M296.66,32.66l-2,7.51h-3.78L296.45,19h6.45a9.17,9.17,0,0,1,3,.43,4.82,4.82,0,0,1,2,1.21,3.92,3.92,0,0,1,1,1.84,6.19,6.19,0,0,1,.08,2.33,9.73,9.73,0,0,1-1,3.15A8.17,8.17,0,0,1,306,30.43a8.91,8.91,0,0,1-2.9,1.64,11.62,11.62,0,0,1-3.83.59Zm2.83-10.75-2.05,7.79h2.67a5.55,5.55,0,0,0,2-.33,4.52,4.52,0,0,0,1.49-.95,4.59,4.59,0,0,0,1-1.44,6.62,6.62,0,0,0,.51-1.85,3.86,3.86,0,0,0,0-1.32,2.21,2.21,0,0,0-.49-1,2.63,2.63,0,0,0-1-.65,4.32,4.32,0,0,0-1.49-.23Z"/><path class="cls-1" d="M315.14,59.14v-2h12l.06,1.54,0,.46Zm-12,0h-12v-2h12Zm-24,0h-12v-2h12Zm-24,0h-12v-2h12Zm-24,0h-12v-2h12Zm-24,0h-12v-2h12Zm-24,0h-12v-2h12Zm-24,0h-12v-2h12Zm-24,0h-12v-2h12Zm-24,0h-12v-2h12Zm-24,0h-12v-2h12Zm-24,0h-12v-2h12Zm-24,0h-12v-2h12Zm-24,0H7a6.93,6.93,0,0,1-4.28-1.46L3.94,56.1a5,5,0,0,0,3.06,1h8.06ZM334.14,49.5h-2v-12h2ZM2,45.62H0v-12H2ZM334.14,25.49h-2v-12h2ZM2,21.61H0v-12H2ZM330.18,3a5,5,0,0,0-3-1h-8.09V0h8.09a7,7,0,0,1,4.25,1.44ZM307.05,2h-12V0h12ZM283,2H271V0h12ZM259,2H247V0h12ZM235,2H223V0h12ZM211,2H199V0h12ZM187,2H175V0h12ZM163,2H151V0h12ZM139,2H127V0h12ZM115,2H103V0h12ZM91,2H79V0H91ZM67,2H55V0H67ZM43,2H31V0H43ZM19,2H7L7,0H19Z"/></g></g></svg>